<svg xmlns="http://www.w3.org/2000/svg" viewBox="0 0 1200 630" width="1200" height="630"><defs><linearGradient id="g" x1="0" y1="0" x2="1" y2="0"><stop offset="0" stop-color="#4C86FF"/><stop offset="1" stop-color="#22D3EE"/></linearGradient><radialGradient id="bloom" cx="0.5" cy="0.1" r="0.85"><stop offset="0" stop-color="#4C86FF" stop-opacity="0.34"/><stop offset="0.55" stop-color="#22D3EE" stop-opacity="0.10"/><stop offset="1" stop-color="#0b1220" stop-opacity="0"/></radialGradient></defs><rect width="1200" height="630" fill="#0b1220"/><rect width="1200" height="630" fill="url(#bloom)"/><g transform="translate(235.500,219.250) scale(1.5500)"><g fill="none" stroke="url(#g)" stroke-width="12" stroke-linecap="round" stroke-linejoin="round"><path d="M8,12 L36,80 L64,12"/><path d="M64,12 L64,80"/><path d="M64,12 C87,12 87,44 64,44"/><path d="M89,12 L89,80"/><path d="M89,12 L110,12 M89,46 L107,46 M89,80 L110,80"/></g><circle cx="110" cy="12" r="10" fill="#22D3EE"/><circle cx="110" cy="12" r="3.8" fill="#0b1220"/></g><g fill="#ffffff" transform="translate(467.700,320.280)"><path d="M223 0 38 516H172L241 297L299 107H306L364 297L433 516H562L377 0Z" transform="translate(0.000,0.000) scale(0.092000,-0.092000)"/><path d="M69 516H197V425H204Q225 472 261.5 500.0Q298 528 358 528Q402 528 438.5 511.5Q475 495 501.0 461.5Q527 428 541.0 377.0Q555 326 555 258Q555 190 541.0 139.0Q527 88 501.0 54.5Q475 21 438.5 4.5Q402 -12 358 -12Q298 -12 261.5 16.0Q225 44 204 91H197V-200H69ZM304 90Q360 90 390.5 124.0Q421 158 421 217V299Q421 358 390.5 392.0Q360 426 304 426Q260 426 228.5 404.5Q197 383 197 339V177Q197 133 228.5 111.5Q260 90 304 90Z" transform="translate(55.200,0.000) scale(0.092000,-0.092000)"/><path d="M490 0Q443 0 417.5 23.5Q392 47 387 89H382Q368 41 327.0 14.5Q286 -12 226 -12Q148 -12 102.0 29.0Q56 70 56 143Q56 299 285 299H376V333Q376 382 352.0 407.0Q328 432 274 432Q225 432 195.0 413.0Q165 394 144 364L71 426Q95 469 148.5 498.5Q202 528 287 528Q389 528 446.5 480.5Q504 433 504 339V96H565V0ZM269 76Q315 76 345.5 97.5Q376 119 376 156V225H288Q183 225 183 159V139Q183 108 206.0 92.0Q229 76 269 76Z" transform="translate(110.400,0.000) scale(0.092000,-0.092000)"/><path d="M335 0Q261 0 226.0 39.0Q191 78 191 140V415H41V516H143Q174 516 187.0 528.5Q200 541 200 573V698H319V516H529V415H319V101H529V0Z" transform="translate(165.600,0.000) scale(0.092000,-0.092000)"/><path d="M75 740H203V425H208Q225 467 260.5 497.5Q296 528 359 528Q435 528 482.5 477.5Q530 427 530 333V0H402V315Q402 427 305 427Q285 427 267.0 422.0Q249 417 234.5 406.5Q220 396 211.5 381.0Q203 366 203 345V0H75Z" transform="translate(220.800,0.000) scale(0.092000,-0.092000)"/><path d="M332 596Q287 596 268.5 615.0Q250 634 250 661V685Q250 712 268.5 731.0Q287 750 332 750Q377 750 395.5 731.0Q414 712 414 685V661Q414 634 395.5 615.0Q377 596 332 596ZM98 101H268V415H98V516H396V101H554V0H98Z" transform="translate(276.000,0.000) scale(0.092000,-0.092000)"/><path d="M75 0V516H203V425H208Q225 467 260.5 497.5Q296 528 359 528Q435 528 482.5 477.5Q530 427 530 333V0H402V315Q402 427 305 427Q285 427 267.0 422.0Q249 417 234.5 406.5Q220 396 211.5 381.0Q203 366 203 345V0Z" transform="translate(331.200,0.000) scale(0.092000,-0.092000)"/><path d="M576 -54Q576 -135 508.5 -173.5Q441 -212 298 -212Q228 -212 181.0 -203.5Q134 -195 105.5 -179.0Q77 -163 65.0 -140.5Q53 -118 53 -90Q53 -47 78.0 -24.0Q103 -1 148 10V18Q118 28 100.5 46.0Q83 64 83 96Q83 134 108.5 153.0Q134 172 176 182V187Q130 209 104.0 249.0Q78 289 78 346Q78 389 93.5 422.5Q109 456 137.5 479.5Q166 503 206.0 515.5Q246 528 295 528Q347 528 389 514V536Q389 566 408.5 586.0Q428 606 463 606H556V510H434V493Q472 470 492.5 433.5Q513 397 513 346Q513 303 497.5 269.0Q482 235 453.5 212.0Q425 189 384.5 176.5Q344 164 295 164Q275 164 256.5 165.5Q238 167 221 172Q207 167 194.0 156.0Q181 145 181 127Q181 103 204.0 97.5Q227 92 259 92H376Q430 92 468.0 81.5Q506 71 530.0 51.5Q554 32 565.0 5.0Q576 -22 576 -54ZM456 -63Q456 -40 437.5 -26.5Q419 -13 369 -13H191Q161 -30 161 -63Q161 -90 183.5 -108.0Q206 -126 260 -126H343Q456 -126 456 -63ZM295 248Q344 248 367.0 271.5Q390 295 390 333V359Q390 397 367.0 420.5Q344 444 295 444Q247 444 224.0 420.5Q201 397 201 359V333Q201 295 224.0 271.5Q247 248 295 248Z" transform="translate(386.400,0.000) scale(0.092000,-0.092000)"/></g><g fill="#22D3EE" transform="translate(467.700,320.280)"><path d="M78 -138 407 760H522L193 -138Z" transform="translate(441.600,0.000) scale(0.092000,-0.092000)"/></g><g fill="#9fb0c8" transform="translate(469.700,364.280)"><path d="M309 -12Q253 -12 208.5 7.0Q164 26 132.5 61.5Q101 97 84.0 146.5Q67 196 67 257Q67 319 84.5 369.0Q102 419 133.0 454.5Q164 490 207.5 509.0Q251 528 304 528Q356 528 398.5 509.0Q441 490 471.0 456.5Q501 423 517.0 377.0Q533 331 533 276V238H151V214Q151 180 162.0 151.0Q173 122 193.5 101.0Q214 80 243.5 68.5Q273 57 309 57Q361 57 399.0 81.0Q437 105 457 147L516 107Q493 55 439.5 21.5Q386 -12 309 -12ZM304 462Q271 462 243.0 450.0Q215 438 194.5 417.0Q174 396 162.5 367.5Q151 339 151 305V298H447V309Q447 343 436.5 371.0Q426 399 407.5 419.5Q389 440 362.5 451.0Q336 462 304 462Z" transform="translate(0.000,0.000) scale(0.026000,-0.026000)"/><path d="M98 0V516H178V432H182Q190 451 202.0 468.5Q214 486 231.5 499.0Q249 512 273.0 520.0Q297 528 329 528Q410 528 459.0 476.5Q508 425 508 331V0H428V317Q428 388 397.0 422.5Q366 457 306 457Q282 457 259.0 451.0Q236 445 218.0 433.0Q200 421 189.0 402.0Q178 383 178 358V0Z" transform="translate(21.200,0.000) scale(0.026000,-0.026000)"/><path d="M325 0Q266 0 238.5 33.0Q211 66 211 118V448H39V516H167Q193 516 203.5 526.5Q214 537 214 563V698H291V516H526V448H291V68H526V0Z" transform="translate(42.400,0.000) scale(0.026000,-0.026000)"/><path d="M309 -12Q253 -12 208.5 7.0Q164 26 132.5 61.5Q101 97 84.0 146.5Q67 196 67 257Q67 319 84.5 369.0Q102 419 133.0 454.5Q164 490 207.5 509.0Q251 528 304 528Q356 528 398.5 509.0Q441 490 471.0 456.5Q501 423 517.0 377.0Q533 331 533 276V238H151V214Q151 180 162.0 151.0Q173 122 193.5 101.0Q214 80 243.5 68.5Q273 57 309 57Q361 57 399.0 81.0Q437 105 457 147L516 107Q493 55 439.5 21.5Q386 -12 309 -12ZM304 462Q271 462 243.0 450.0Q215 438 194.5 417.0Q174 396 162.5 367.5Q151 339 151 305V298H447V309Q447 343 436.5 371.0Q426 399 407.5 419.5Q389 440 362.5 451.0Q336 462 304 462Z" transform="translate(63.600,0.000) scale(0.026000,-0.026000)"/><path d="M77 68H228V448H77V516H308V386H313Q329 447 373.5 481.5Q418 516 487 516H559V436H462Q393 436 350.5 396.0Q308 356 308 291V68H508V0H77Z" transform="translate(84.800,0.000) scale(0.026000,-0.026000)"/><path d="M95 516H175V432H179Q229 528 338 528Q433 528 486.5 457.0Q540 386 540 258Q540 130 486.5 59.0Q433 -12 338 -12Q229 -12 179 84H175V-200H95ZM307 59Q377 59 415.5 101.5Q454 144 454 214V302Q454 372 415.5 414.5Q377 457 307 457Q280 457 256.0 450.0Q232 443 214.0 429.5Q196 416 185.5 396.5Q175 377 175 351V165Q175 139 185.5 119.5Q196 100 214.0 86.5Q232 73 256.0 66.0Q280 59 307 59Z" transform="translate(106.000,0.000) scale(0.026000,-0.026000)"/><path d="M77 68H228V448H77V516H308V386H313Q329 447 373.5 481.5Q418 516 487 516H559V436H462Q393 436 350.5 396.0Q308 356 308 291V68H508V0H77Z" transform="translate(127.200,0.000) scale(0.026000,-0.026000)"/><path d="M332 630Q297 630 283.0 644.5Q269 659 269 681V697Q269 719 283.0 733.5Q297 748 332 748Q367 748 381.0 733.5Q395 719 395 697V681Q395 659 381.0 644.5Q367 630 332 630ZM106 68H292V448H106V516H372V68H546V0H106Z" transform="translate(148.400,0.000) scale(0.026000,-0.026000)"/><path d="M306 -12Q225 -12 166.5 15.5Q108 43 67 89L121 136Q158 97 202.0 76.0Q246 55 308 55Q368 55 406.5 76.5Q445 98 445 144Q445 164 437.5 177.5Q430 191 417.0 199.0Q404 207 388.0 211.5Q372 216 354 219L273 231Q246 235 214.5 242.0Q183 249 157.0 264.5Q131 280 113.5 306.0Q96 332 96 374Q96 413 111.5 441.5Q127 470 155.0 489.5Q183 509 221.0 518.5Q259 528 304 528Q374 528 425.5 506.0Q477 484 514 445L462 396Q453 407 439.5 418.5Q426 430 406.5 439.5Q387 449 361.0 455.0Q335 461 301 461Q240 461 207.5 440.0Q175 419 175 379Q175 359 182.5 345.5Q190 332 203.0 324.0Q216 316 232.5 311.5Q249 307 266 304L347 292Q375 288 406.0 281.0Q437 274 463.0 258.5Q489 243 506.5 217.0Q524 191 524 149Q524 72 464.5 30.0Q405 -12 306 -12Z" transform="translate(169.600,0.000) scale(0.026000,-0.026000)"/><path d="M309 -12Q253 -12 208.5 7.0Q164 26 132.5 61.5Q101 97 84.0 146.5Q67 196 67 257Q67 319 84.5 369.0Q102 419 133.0 454.5Q164 490 207.5 509.0Q251 528 304 528Q356 528 398.5 509.0Q441 490 471.0 456.5Q501 423 517.0 377.0Q533 331 533 276V238H151V214Q151 180 162.0 151.0Q173 122 193.5 101.0Q214 80 243.5 68.5Q273 57 309 57Q361 57 399.0 81.0Q437 105 457 147L516 107Q493 55 439.5 21.5Q386 -12 309 -12ZM304 462Q271 462 243.0 450.0Q215 438 194.5 417.0Q174 396 162.5 367.5Q151 339 151 305V298H447V309Q447 343 436.5 371.0Q426 399 407.5 419.5Q389 440 362.5 451.0Q336 462 304 462Z" transform="translate(190.800,0.000) scale(0.026000,-0.026000)"/><path d="M60 -169V-95H540V-169Z" transform="translate(212.000,0.000) scale(0.026000,-0.026000)"/><path d="M80 68H260V672H80V740H340V68H520V0H80Z" transform="translate(233.200,0.000) scale(0.026000,-0.026000)"/><path d="M80 68H260V672H80V740H340V68H520V0H80Z" transform="translate(254.400,0.000) scale(0.026000,-0.026000)"/><path d="M318 -12Q262 -12 218.5 7.5Q175 27 145.0 62.0Q115 97 99.5 147.0Q84 197 84 258Q84 319 100.0 369.0Q116 419 146.0 454.5Q176 490 219.0 509.0Q262 528 317 528Q392 528 439.0 495.0Q486 462 508 409L444 375Q430 415 397.5 437.0Q365 459 317 459Q282 459 254.5 447.5Q227 436 208.0 415.0Q189 394 179.5 365.0Q170 336 170 302V214Q170 180 179.5 151.0Q189 122 208.0 101.0Q227 80 255.0 68.5Q283 57 319 57Q371 57 405.0 81.0Q439 105 459 147L516 108Q493 56 444.5 22.0Q396 -12 318 -12Z" transform="translate(275.600,0.000) scale(0.026000,-0.026000)"/></g><g fill="#9fb0c8" transform="translate(180.300,442.750)"><path d="M88 698H325Q415 698 466.0 649.0Q517 600 517 518Q517 455 486.5 419.0Q456 383 408 368V365Q467 351 505.0 312.5Q543 274 543 201Q543 159 529.0 122.0Q515 85 489.5 58.0Q464 31 429.5 15.5Q395 0 355 0H88ZM330 73Q388 73 421.0 99.0Q454 125 454 179V220Q454 273 421.0 299.5Q388 326 330 326H172V73ZM316 395Q369 395 399.0 418.5Q429 442 429 490V529Q429 577 399.0 601.0Q369 625 316 625H172V395Z" transform="translate(0.000,0.000) scale(0.027000,-0.027000)"/><path d="M422 84H418Q410 65 398.0 47.5Q386 30 368.5 17.0Q351 4 327.0 -4.0Q303 -12 271 -12Q190 -12 141.0 39.5Q92 91 92 185V516H172V199Q172 128 203.0 93.5Q234 59 294 59Q318 59 341.0 65.0Q364 71 382.0 83.0Q400 95 411.0 113.5Q422 132 422 158V516H502V0H422Z" transform="translate(16.800,0.000) scale(0.027000,-0.027000)"/><path d="M332 630Q297 630 283.0 644.5Q269 659 269 681V697Q269 719 283.0 733.5Q297 748 332 748Q367 748 381.0 733.5Q395 719 395 697V681Q395 659 381.0 644.5Q367 630 332 630ZM106 68H292V448H106V516H372V68H546V0H106Z" transform="translate(33.600,0.000) scale(0.027000,-0.027000)"/><path d="M80 68H260V672H80V740H340V68H520V0H80Z" transform="translate(50.400,0.000) scale(0.027000,-0.027000)"/><path d="M425 84H421Q371 -12 262 -12Q167 -12 113.5 59.0Q60 130 60 258Q60 386 113.5 457.0Q167 528 262 528Q371 528 421 432H425V740H505V0H425ZM293 59Q320 59 344.0 66.0Q368 73 386.0 86.5Q404 100 414.5 119.5Q425 139 425 165V351Q425 377 414.5 396.5Q404 416 386.0 429.5Q368 443 344.0 450.0Q320 457 293 457Q223 457 184.5 414.5Q146 372 146 302V214Q146 144 184.5 101.5Q223 59 293 59Z" transform="translate(67.200,0.000) scale(0.027000,-0.027000)"/><path d="M332 630Q297 630 283.0 644.5Q269 659 269 681V697Q269 719 283.0 733.5Q297 748 332 748Q367 748 381.0 733.5Q395 719 395 697V681Q395 659 381.0 644.5Q367 630 332 630ZM106 68H292V448H106V516H372V68H546V0H106Z" transform="translate(84.000,0.000) scale(0.027000,-0.027000)"/><path d="M98 0V516H178V432H182Q190 451 202.0 468.5Q214 486 231.5 499.0Q249 512 273.0 520.0Q297 528 329 528Q410 528 459.0 476.5Q508 425 508 331V0H428V317Q428 388 397.0 422.5Q366 457 306 457Q282 457 259.0 451.0Q236 445 218.0 433.0Q200 421 189.0 402.0Q178 383 178 358V0Z" transform="translate(100.800,0.000) scale(0.027000,-0.027000)"/><path d="M561 -59Q561 -137 496.0 -174.5Q431 -212 301 -212Q176 -212 121.5 -179.0Q67 -146 67 -84Q67 -42 89.0 -19.0Q111 4 151 15V27Q129 38 117.0 55.0Q105 72 105 98Q105 138 131.5 158.0Q158 178 198 188V192Q150 213 123.5 254.0Q97 295 97 350Q97 389 111.0 422.0Q125 455 151.5 478.5Q178 502 215.0 515.0Q252 528 297 528Q355 528 399 507V516Q399 546 413.0 566.0Q427 586 461 586H556V516H440V481Q468 457 483.0 424.0Q498 391 498 350Q498 311 483.5 278.0Q469 245 443.0 221.5Q417 198 379.5 185.0Q342 172 297 172Q284 172 272.0 173.0Q260 174 248 176Q236 174 223.0 169.5Q210 165 199.0 157.5Q188 150 181.0 140.0Q174 130 174 117Q174 94 197.0 86.5Q220 79 257 79H371Q471 79 516.0 41.5Q561 4 561 -59ZM486 -63Q486 -32 461.0 -13.5Q436 5 374 5H195Q143 -16 143 -65Q143 -99 170.0 -123.5Q197 -148 260 -148H338Q408 -148 447.0 -126.5Q486 -105 486 -63ZM297 234Q357 234 385.5 262.0Q414 290 414 336V365Q414 411 385.5 438.5Q357 466 297 466Q237 466 209.0 438.5Q181 411 181 365V336Q181 290 209.0 262.0Q237 234 297 234Z" transform="translate(117.600,0.000) scale(0.027000,-0.027000)"/><path d="M95 516H175V432H179Q229 528 338 528Q433 528 486.5 457.0Q540 386 540 258Q540 130 486.5 59.0Q433 -12 338 -12Q229 -12 179 84H175V-200H95ZM307 59Q377 59 415.5 101.5Q454 144 454 214V302Q454 372 415.5 414.5Q377 457 307 457Q280 457 256.0 450.0Q232 443 214.0 429.5Q196 416 185.5 396.5Q175 377 175 351V165Q175 139 185.5 119.5Q196 100 214.0 86.5Q232 73 256.0 66.0Q280 59 307 59Z" transform="translate(151.200,0.000) scale(0.027000,-0.027000)"/><path d="M77 68H228V448H77V516H308V386H313Q329 447 373.5 481.5Q418 516 487 516H559V436H462Q393 436 350.5 396.0Q308 356 308 291V68H508V0H77Z" transform="translate(168.000,0.000) scale(0.027000,-0.027000)"/><path d="M495 0Q448 0 428.0 24.0Q408 48 403 84H398Q381 39 343.5 13.5Q306 -12 243 -12Q162 -12 114.0 30.0Q66 72 66 145Q66 217 118.5 256.0Q171 295 288 295H398V346Q398 403 366.0 431.5Q334 460 275 460Q223 460 190.0 439.5Q157 419 137 384L83 424Q93 444 110.0 463.0Q127 482 152.0 496.5Q177 511 209.0 519.5Q241 528 280 528Q371 528 424.5 482.0Q478 436 478 354V70H550V0ZM257 55Q288 55 313.5 62.5Q339 70 358.0 82.5Q377 95 387.5 112.5Q398 130 398 150V235H288Q216 235 183.0 215.0Q150 195 150 157V136Q150 96 178.5 75.5Q207 55 257 55Z" transform="translate(184.800,0.000) scale(0.027000,-0.027000)"/><path d="M318 -12Q262 -12 218.5 7.5Q175 27 145.0 62.0Q115 97 99.5 147.0Q84 197 84 258Q84 319 100.0 369.0Q116 419 146.0 454.5Q176 490 219.0 509.0Q262 528 317 528Q392 528 439.0 495.0Q486 462 508 409L444 375Q430 415 397.5 437.0Q365 459 317 459Q282 459 254.5 447.5Q227 436 208.0 415.0Q189 394 179.5 365.0Q170 336 170 302V214Q170 180 179.5 151.0Q189 122 208.0 101.0Q227 80 255.0 68.5Q283 57 319 57Q371 57 405.0 81.0Q439 105 459 147L516 108Q493 56 444.5 22.0Q396 -12 318 -12Z" transform="translate(201.600,0.000) scale(0.027000,-0.027000)"/><path d="M325 0Q266 0 238.5 33.0Q211 66 211 118V448H39V516H167Q193 516 203.5 526.5Q214 537 214 563V698H291V516H526V448H291V68H526V0Z" transform="translate(218.400,0.000) scale(0.027000,-0.027000)"/><path d="M332 630Q297 630 283.0 644.5Q269 659 269 681V697Q269 719 283.0 733.5Q297 748 332 748Q367 748 381.0 733.5Q395 719 395 697V681Q395 659 381.0 644.5Q367 630 332 630ZM106 68H292V448H106V516H372V68H546V0H106Z" transform="translate(235.200,0.000) scale(0.027000,-0.027000)"/><path d="M318 -12Q262 -12 218.5 7.5Q175 27 145.0 62.0Q115 97 99.5 147.0Q84 197 84 258Q84 319 100.0 369.0Q116 419 146.0 454.5Q176 490 219.0 509.0Q262 528 317 528Q392 528 439.0 495.0Q486 462 508 409L444 375Q430 415 397.5 437.0Q365 459 317 459Q282 459 254.5 447.5Q227 436 208.0 415.0Q189 394 179.5 365.0Q170 336 170 302V214Q170 180 179.5 151.0Q189 122 208.0 101.0Q227 80 255.0 68.5Q283 57 319 57Q371 57 405.0 81.0Q439 105 459 147L516 108Q493 56 444.5 22.0Q396 -12 318 -12Z" transform="translate(252.000,0.000) scale(0.027000,-0.027000)"/><path d="M495 0Q448 0 428.0 24.0Q408 48 403 84H398Q381 39 343.5 13.5Q306 -12 243 -12Q162 -12 114.0 30.0Q66 72 66 145Q66 217 118.5 256.0Q171 295 288 295H398V346Q398 403 366.0 431.5Q334 460 275 460Q223 460 190.0 439.5Q157 419 137 384L83 424Q93 444 110.0 463.0Q127 482 152.0 496.5Q177 511 209.0 519.5Q241 528 280 528Q371 528 424.5 482.0Q478 436 478 354V70H550V0ZM257 55Q288 55 313.5 62.5Q339 70 358.0 82.5Q377 95 387.5 112.5Q398 130 398 150V235H288Q216 235 183.0 215.0Q150 195 150 157V136Q150 96 178.5 75.5Q207 55 257 55Z" transform="translate(268.800,0.000) scale(0.027000,-0.027000)"/><path d="M80 68H260V672H80V740H340V68H520V0H80Z" transform="translate(285.600,0.000) scale(0.027000,-0.027000)"/><path d="M495 0Q448 0 428.0 24.0Q408 48 403 84H398Q381 39 343.5 13.5Q306 -12 243 -12Q162 -12 114.0 30.0Q66 72 66 145Q66 217 118.5 256.0Q171 295 288 295H398V346Q398 403 366.0 431.5Q334 460 275 460Q223 460 190.0 439.5Q157 419 137 384L83 424Q93 444 110.0 463.0Q127 482 152.0 496.5Q177 511 209.0 519.5Q241 528 280 528Q371 528 424.5 482.0Q478 436 478 354V70H550V0ZM257 55Q288 55 313.5 62.5Q339 70 358.0 82.5Q377 95 387.5 112.5Q398 130 398 150V235H288Q216 235 183.0 215.0Q150 195 150 157V136Q150 96 178.5 75.5Q207 55 257 55Z" transform="translate(319.200,0.000) scale(0.027000,-0.027000)"/><path d="M95 516H175V432H179Q229 528 338 528Q433 528 486.5 457.0Q540 386 540 258Q540 130 486.5 59.0Q433 -12 338 -12Q229 -12 179 84H175V-200H95ZM307 59Q377 59 415.5 101.5Q454 144 454 214V302Q454 372 415.5 414.5Q377 457 307 457Q280 457 256.0 450.0Q232 443 214.0 429.5Q196 416 185.5 396.5Q175 377 175 351V165Q175 139 185.5 119.5Q196 100 214.0 86.5Q232 73 256.0 66.0Q280 59 307 59Z" transform="translate(336.000,0.000) scale(0.027000,-0.027000)"/><path d="M95 516H175V432H179Q229 528 338 528Q433 528 486.5 457.0Q540 386 540 258Q540 130 486.5 59.0Q433 -12 338 -12Q229 -12 179 84H175V-200H95ZM307 59Q377 59 415.5 101.5Q454 144 454 214V302Q454 372 415.5 414.5Q377 457 307 457Q280 457 256.0 450.0Q232 443 214.0 429.5Q196 416 185.5 396.5Q175 377 175 351V165Q175 139 185.5 119.5Q196 100 214.0 86.5Q232 73 256.0 66.0Q280 59 307 59Z" transform="translate(352.800,0.000) scale(0.027000,-0.027000)"/><path d="M306 -12Q225 -12 166.5 15.5Q108 43 67 89L121 136Q158 97 202.0 76.0Q246 55 308 55Q368 55 406.5 76.5Q445 98 445 144Q445 164 437.5 177.5Q430 191 417.0 199.0Q404 207 388.0 211.5Q372 216 354 219L273 231Q246 235 214.5 242.0Q183 249 157.0 264.5Q131 280 113.5 306.0Q96 332 96 374Q96 413 111.5 441.5Q127 470 155.0 489.5Q183 509 221.0 518.5Q259 528 304 528Q374 528 425.5 506.0Q477 484 514 445L462 396Q453 407 439.5 418.5Q426 430 406.5 439.5Q387 449 361.0 455.0Q335 461 301 461Q240 461 207.5 440.0Q175 419 175 379Q175 359 182.5 345.5Q190 332 203.0 324.0Q216 316 232.5 311.5Q249 307 266 304L347 292Q375 288 406.0 281.0Q437 274 463.0 258.5Q489 243 506.5 217.0Q524 191 524 149Q524 72 464.5 30.0Q405 -12 306 -12Z" transform="translate(369.600,0.000) scale(0.027000,-0.027000)"/><path d="M83 68H257V448H73V516H257V622Q257 674 284.5 707.0Q312 740 371 740H544V672H337V516H544V448H337V68H521V0H83Z" transform="translate(403.200,0.000) scale(0.027000,-0.027000)"/><path d="M300 -12Q246 -12 202.5 7.0Q159 26 128.5 61.5Q98 97 82.0 146.5Q66 196 66 258Q66 319 82.0 369.0Q98 419 128.5 454.5Q159 490 202.5 509.0Q246 528 300 528Q354 528 397.5 509.0Q441 490 471.5 454.5Q502 419 518.0 369.0Q534 319 534 258Q534 196 518.0 146.5Q502 97 471.5 61.5Q441 26 397.5 7.0Q354 -12 300 -12ZM300 57Q367 57 408.0 97.0Q449 137 449 221V295Q449 379 408.0 419.0Q367 459 300 459Q233 459 192.0 419.0Q151 379 151 295V221Q151 137 192.0 97.0Q233 57 300 57Z" transform="translate(420.000,0.000) scale(0.027000,-0.027000)"/><path d="M77 68H228V448H77V516H308V386H313Q329 447 373.5 481.5Q418 516 487 516H559V436H462Q393 436 350.5 396.0Q308 356 308 291V68H508V0H77Z" transform="translate(436.800,0.000) scale(0.027000,-0.027000)"/><path d="M77 68H228V448H77V516H308V386H313Q329 447 373.5 481.5Q418 516 487 516H559V436H462Q393 436 350.5 396.0Q308 356 308 291V68H508V0H77Z" transform="translate(470.400,0.000) scale(0.027000,-0.027000)"/><path d="M309 -12Q253 -12 208.5 7.0Q164 26 132.5 61.5Q101 97 84.0 146.5Q67 196 67 257Q67 319 84.5 369.0Q102 419 133.0 454.5Q164 490 207.5 509.0Q251 528 304 528Q356 528 398.5 509.0Q441 490 471.0 456.5Q501 423 517.0 377.0Q533 331 533 276V238H151V214Q151 180 162.0 151.0Q173 122 193.5 101.0Q214 80 243.5 68.5Q273 57 309 57Q361 57 399.0 81.0Q437 105 457 147L516 107Q493 55 439.5 21.5Q386 -12 309 -12ZM304 462Q271 462 243.0 450.0Q215 438 194.5 417.0Q174 396 162.5 367.5Q151 339 151 305V298H447V309Q447 343 436.5 371.0Q426 399 407.5 419.5Q389 440 362.5 451.0Q336 462 304 462Z" transform="translate(487.200,0.000) scale(0.027000,-0.027000)"/><path d="M495 0Q448 0 428.0 24.0Q408 48 403 84H398Q381 39 343.5 13.5Q306 -12 243 -12Q162 -12 114.0 30.0Q66 72 66 145Q66 217 118.5 256.0Q171 295 288 295H398V346Q398 403 366.0 431.5Q334 460 275 460Q223 460 190.0 439.5Q157 419 137 384L83 424Q93 444 110.0 463.0Q127 482 152.0 496.5Q177 511 209.0 519.5Q241 528 280 528Q371 528 424.5 482.0Q478 436 478 354V70H550V0ZM257 55Q288 55 313.5 62.5Q339 70 358.0 82.5Q377 95 387.5 112.5Q398 130 398 150V235H288Q216 235 183.0 215.0Q150 195 150 157V136Q150 96 178.5 75.5Q207 55 257 55Z" transform="translate(504.000,0.000) scale(0.027000,-0.027000)"/><path d="M80 68H260V672H80V740H340V68H520V0H80Z" transform="translate(520.800,0.000) scale(0.027000,-0.027000)"/><path d="M155 262V346H445V262Z" transform="translate(537.600,0.000) scale(0.027000,-0.027000)"/><path d="M30 516H101L160 70H169L257 516H345L433 70H442L501 516H570L491 0H387L305 432H297L213 0H109Z" transform="translate(554.400,0.000) scale(0.027000,-0.027000)"/><path d="M300 -12Q246 -12 202.5 7.0Q159 26 128.5 61.5Q98 97 82.0 146.5Q66 196 66 258Q66 319 82.0 369.0Q98 419 128.5 454.5Q159 490 202.5 509.0Q246 528 300 528Q354 528 397.5 509.0Q441 490 471.5 454.5Q502 419 518.0 369.0Q534 319 534 258Q534 196 518.0 146.5Q502 97 471.5 61.5Q441 26 397.5 7.0Q354 -12 300 -12ZM300 57Q367 57 408.0 97.0Q449 137 449 221V295Q449 379 408.0 419.0Q367 459 300 459Q233 459 192.0 419.0Q151 379 151 295V221Q151 137 192.0 97.0Q233 57 300 57Z" transform="translate(571.200,0.000) scale(0.027000,-0.027000)"/><path d="M77 68H228V448H77V516H308V386H313Q329 447 373.5 481.5Q418 516 487 516H559V436H462Q393 436 350.5 396.0Q308 356 308 291V68H508V0H77Z" transform="translate(588.000,0.000) scale(0.027000,-0.027000)"/><path d="M80 68H260V672H80V740H340V68H520V0H80Z" transform="translate(604.800,0.000) scale(0.027000,-0.027000)"/><path d="M425 84H421Q371 -12 262 -12Q167 -12 113.5 59.0Q60 130 60 258Q60 386 113.5 457.0Q167 528 262 528Q371 528 421 432H425V740H505V0H425ZM293 59Q320 59 344.0 66.0Q368 73 386.0 86.5Q404 100 414.5 119.5Q425 139 425 165V351Q425 377 414.5 396.5Q404 416 386.0 429.5Q368 443 344.0 450.0Q320 457 293 457Q223 457 184.5 414.5Q146 372 146 302V214Q146 144 184.5 101.5Q223 59 293 59Z" transform="translate(621.600,0.000) scale(0.027000,-0.027000)"/><path d="M300 -12Q246 -12 202.5 7.0Q159 26 128.5 61.5Q98 97 82.0 146.5Q66 196 66 258Q66 319 82.0 369.0Q98 419 128.5 454.5Q159 490 202.5 509.0Q246 528 300 528Q354 528 397.5 509.0Q441 490 471.5 454.5Q502 419 518.0 369.0Q534 319 534 258Q534 196 518.0 146.5Q502 97 471.5 61.5Q441 26 397.5 7.0Q354 -12 300 -12ZM300 57Q367 57 408.0 97.0Q449 137 449 221V295Q449 379 408.0 419.0Q367 459 300 459Q233 459 192.0 419.0Q151 379 151 295V221Q151 137 192.0 97.0Q233 57 300 57Z" transform="translate(655.200,0.000) scale(0.027000,-0.027000)"/><path d="M95 516H175V432H179Q229 528 338 528Q433 528 486.5 457.0Q540 386 540 258Q540 130 486.5 59.0Q433 -12 338 -12Q229 -12 179 84H175V-200H95ZM307 59Q377 59 415.5 101.5Q454 144 454 214V302Q454 372 415.5 414.5Q377 457 307 457Q280 457 256.0 450.0Q232 443 214.0 429.5Q196 416 185.5 396.5Q175 377 175 351V165Q175 139 185.5 119.5Q196 100 214.0 86.5Q232 73 256.0 66.0Q280 59 307 59Z" transform="translate(672.000,0.000) scale(0.027000,-0.027000)"/><path d="M309 -12Q253 -12 208.5 7.0Q164 26 132.5 61.5Q101 97 84.0 146.5Q67 196 67 257Q67 319 84.5 369.0Q102 419 133.0 454.5Q164 490 207.5 509.0Q251 528 304 528Q356 528 398.5 509.0Q441 490 471.0 456.5Q501 423 517.0 377.0Q533 331 533 276V238H151V214Q151 180 162.0 151.0Q173 122 193.5 101.0Q214 80 243.5 68.5Q273 57 309 57Q361 57 399.0 81.0Q437 105 457 147L516 107Q493 55 439.5 21.5Q386 -12 309 -12ZM304 462Q271 462 243.0 450.0Q215 438 194.5 417.0Q174 396 162.5 367.5Q151 339 151 305V298H447V309Q447 343 436.5 371.0Q426 399 407.5 419.5Q389 440 362.5 451.0Q336 462 304 462Z" transform="translate(688.800,0.000) scale(0.027000,-0.027000)"/><path d="M77 68H228V448H77V516H308V386H313Q329 447 373.5 481.5Q418 516 487 516H559V436H462Q393 436 350.5 396.0Q308 356 308 291V68H508V0H77Z" transform="translate(705.600,0.000) scale(0.027000,-0.027000)"/><path d="M495 0Q448 0 428.0 24.0Q408 48 403 84H398Q381 39 343.5 13.5Q306 -12 243 -12Q162 -12 114.0 30.0Q66 72 66 145Q66 217 118.5 256.0Q171 295 288 295H398V346Q398 403 366.0 431.5Q334 460 275 460Q223 460 190.0 439.5Q157 419 137 384L83 424Q93 444 110.0 463.0Q127 482 152.0 496.5Q177 511 209.0 519.5Q241 528 280 528Q371 528 424.5 482.0Q478 436 478 354V70H550V0ZM257 55Q288 55 313.5 62.5Q339 70 358.0 82.5Q377 95 387.5 112.5Q398 130 398 150V235H288Q216 235 183.0 215.0Q150 195 150 157V136Q150 96 178.5 75.5Q207 55 257 55Z" transform="translate(722.400,0.000) scale(0.027000,-0.027000)"/><path d="M325 0Q266 0 238.5 33.0Q211 66 211 118V448H39V516H167Q193 516 203.5 526.5Q214 537 214 563V698H291V516H526V448H291V68H526V0Z" transform="translate(739.200,0.000) scale(0.027000,-0.027000)"/><path d="M332 630Q297 630 283.0 644.5Q269 659 269 681V697Q269 719 283.0 733.5Q297 748 332 748Q367 748 381.0 733.5Q395 719 395 697V681Q395 659 381.0 644.5Q367 630 332 630ZM106 68H292V448H106V516H372V68H546V0H106Z" transform="translate(756.000,0.000) scale(0.027000,-0.027000)"/><path d="M300 -12Q246 -12 202.5 7.0Q159 26 128.5 61.5Q98 97 82.0 146.5Q66 196 66 258Q66 319 82.0 369.0Q98 419 128.5 454.5Q159 490 202.5 509.0Q246 528 300 528Q354 528 397.5 509.0Q441 490 471.5 454.5Q502 419 518.0 369.0Q534 319 534 258Q534 196 518.0 146.5Q502 97 471.5 61.5Q441 26 397.5 7.0Q354 -12 300 -12ZM300 57Q367 57 408.0 97.0Q449 137 449 221V295Q449 379 408.0 419.0Q367 459 300 459Q233 459 192.0 419.0Q151 379 151 295V221Q151 137 192.0 97.0Q233 57 300 57Z" transform="translate(772.800,0.000) scale(0.027000,-0.027000)"/><path d="M98 0V516H178V432H182Q190 451 202.0 468.5Q214 486 231.5 499.0Q249 512 273.0 520.0Q297 528 329 528Q410 528 459.0 476.5Q508 425 508 331V0H428V317Q428 388 397.0 422.5Q366 457 306 457Q282 457 259.0 451.0Q236 445 218.0 433.0Q200 421 189.0 402.0Q178 383 178 358V0Z" transform="translate(789.600,0.000) scale(0.027000,-0.027000)"/><path d="M306 -12Q225 -12 166.5 15.5Q108 43 67 89L121 136Q158 97 202.0 76.0Q246 55 308 55Q368 55 406.5 76.5Q445 98 445 144Q445 164 437.5 177.5Q430 191 417.0 199.0Q404 207 388.0 211.5Q372 216 354 219L273 231Q246 235 214.5 242.0Q183 249 157.0 264.5Q131 280 113.5 306.0Q96 332 96 374Q96 413 111.5 441.5Q127 470 155.0 489.5Q183 509 221.0 518.5Q259 528 304 528Q374 528 425.5 506.0Q477 484 514 445L462 396Q453 407 439.5 418.5Q426 430 406.5 439.5Q387 449 361.0 455.0Q335 461 301 461Q240 461 207.5 440.0Q175 419 175 379Q175 359 182.5 345.5Q190 332 203.0 324.0Q216 316 232.5 311.5Q249 307 266 304L347 292Q375 288 406.0 281.0Q437 274 463.0 258.5Q489 243 506.5 217.0Q524 191 524 149Q524 72 464.5 30.0Q405 -12 306 -12Z" transform="translate(806.400,0.000) scale(0.027000,-0.027000)"/><path d="M300 -9Q259 -9 242.5 8.0Q226 25 226 51V69Q226 95 242.5 112.0Q259 129 300 129Q341 129 357.5 112.0Q374 95 374 69V51Q374 25 357.5 8.0Q341 -9 300 -9Z" transform="translate(823.200,0.000) scale(0.027000,-0.027000)"/></g><rect x="0" y="626" width="1200" height="4" fill="url(#g)"/></svg>